<svg xmlns="http://www.w3.org/2000/svg" viewBox="0 560 1616.59 440"><defs><style>.cls-1{fill:#faa51a;}.cls-2{fill:#037c7c;}.cls-3,.cls-4{fill:#ffc527;}.cls-3{isolation:isolate;}.cls-5{fill:#f58220;}.cls-6{fill:#8b4c54;}</style></defs><g id="Artwork"><path class="cls-1" d="M296.79,736.67v97.75H255.36V754a39.65,39.65,0,0,0-2.68-14.15q-2.38-5.52-11-6.11a23.3,23.3,0,0,0-17.13,7,42.94,42.94,0,0,0-10.44,17.88,68.91,68.91,0,0,0-2.3,9.56,73.11,73.11,0,0,0-1.12,13v53.34H168.93V754c0-.71-.06-1.41-.12-2.1a31.73,31.73,0,0,0-3-12.05q-2.84-5.52-11.47-6.11a23.38,23.38,0,0,0-7.38,1.13,22,22,0,0,0-9.16,5.87,44.92,44.92,0,0,0-10.14,17.73,71.91,71.91,0,0,0-3.42,22.06v53.94H82.5V704.18h37.85l3,20.71a66.23,66.23,0,0,1,7.2-9.85,55.61,55.61,0,0,1,5.05-5,54.86,54.86,0,0,1,6.86-5.09q11.63-7.32,28-7.31a55.47,55.47,0,0,1,18.93,3,36.61,36.61,0,0,1,13.86,8.8,30.21,30.21,0,0,1,7.4,13.74,68.49,68.49,0,0,1,19-18.07,45.34,45.34,0,0,1,24.59-7.45q19.36,0,30.85,10.88T296.79,736.67Z"/><path class="cls-2" d="M296.79,736.67v15.78A122.38,122.38,0,0,1,255.36,768V754a39.65,39.65,0,0,0-2.68-14.15q-2.38-5.52-11-6.11a23.3,23.3,0,0,0-17.13,7,42.94,42.94,0,0,0-10.44,17.88,68.91,68.91,0,0,0-2.3,9.56,122.14,122.14,0,0,1-43-16.28,31.73,31.73,0,0,0-3-12.05q-2.84-5.52-11.47-6.11a23.38,23.38,0,0,0-7.38,1.13A123.33,123.33,0,0,1,130.5,715a55.61,55.61,0,0,1,5.05-5,54.86,54.86,0,0,1,6.86-5.09q11.63-7.32,28-7.31a55.47,55.47,0,0,1,18.93,3,36.61,36.61,0,0,1,13.86,8.8,30.21,30.21,0,0,1,7.4,13.74,68.49,68.49,0,0,1,19-18.07,45.34,45.34,0,0,1,24.59-7.45q19.36,0,30.85,10.88T296.79,736.67Z"/><path class="cls-3" d="M210.66,803.52v30.9H168.93V754c0-.71-.06-1.41-.12-2.1a31.73,31.73,0,0,0-3-12.05q-2.84-5.52-11.47-6.11a23.38,23.38,0,0,0-7.38,1.13,22,22,0,0,0-9.16,5.87,44.92,44.92,0,0,0-10.14,17.73,71.91,71.91,0,0,0-3.42,22.06v53.94H82.5V704.18h37.85l3,20.71a66.23,66.23,0,0,1,7.2-9.85,55.61,55.61,0,0,1,5.05-5,184.8,184.8,0,0,1,53.87,52A183.88,183.88,0,0,1,210.66,803.52Z"/><path class="cls-1" d="M433.58,704.18l-2.7,13.31a72.53,72.53,0,0,0-14.22-12.33c-.55-.38-1.13-.76-1.71-1.13q-10-6.42-29.36-6.41a59.16,59.16,0,0,0-31,8.8,65.25,65.25,0,0,0-23.55,24.88q-8.94,16.1-8.94,38.15,0,23.53,8.64,38.75a54.35,54.35,0,0,0,23.4,22.5,70.1,70.1,0,0,0,23.63,6.79,81,81,0,0,0,9.3.51,53.72,53.72,0,0,0,20.12-3.43,57.36,57.36,0,0,0,14.31-8,68.82,68.82,0,0,0,8.79-8c.1-.12.21-.22.3-.34v16.28h41.72V704.18Zm-3,80.17a39.3,39.3,0,0,1-7.75,10.88,30,30,0,0,1-10.44,6.56A37.87,37.87,0,0,1,399,804a32.64,32.64,0,0,1-17.13-4.76,35.42,35.42,0,0,1-3.76-2.61,36.61,36.61,0,0,1-8.91-10.51,39.86,39.86,0,0,1-.3-37.25A33.58,33.58,0,0,1,381,736.22a31.27,31.27,0,0,1,16.54-4.62c.48,0,1,0,1.43,0a39.5,39.5,0,0,1,13.18,2.5,33,33,0,0,1,11.32,7.16,29.06,29.06,0,0,1,7.16,11.17Z"/><path class="cls-4" d="M641.91,737v97.45H600.18v-82q-.28-8.64-4.62-13.86t-14.45-5.21a24.54,24.54,0,0,0-16.69,6.26q-7.15,6.26-11,17a72.67,72.67,0,0,0-3.87,24.73v53H507.79V704.18h37.85l2.94,20.76a53.56,53.56,0,0,1,19.12-19.42q12.51-7.59,30.69-7.6,18.5,0,30.85,10.88T641.91,737Z"/><path class="cls-1" d="M784.67,704.18l-3.19,10.21q-6.26-7-18.42-11.85a72.14,72.14,0,0,0-21.4-4.62c-2.56-.21-5.22-.3-8-.3a61.1,61.1,0,0,0-32.19,9.24c-.32.21-.65.41-1,.61a72.46,72.46,0,0,0-23.75,24.58q-9.56,15.93-9.54,36.51,0,20,8.94,35.61,1,1.68,2,3.27l.55.85c.42.64.85,1.26,1.3,1.87a63.62,63.62,0,0,0,5.17,6.44c.27.3.54.6.84.9h0c.52.57,1.06,1.12,1.61,1.65.31.32.63.63,1,.93s.56.54.84.79a3.17,3.17,0,0,0,.39.34c.23.22.47.43.71.64s.24.21.36.32a1.53,1.53,0,0,0,.16.11,2.19,2.19,0,0,0,.23.21c.32.29.65.57,1,.82s1,.78,1.46,1.16.81.62,1.21.91.82.61,1.23.9.5.36.75.52c1.06.73,2.15,1.43,3.26,2.1A61.89,61.89,0,0,0,732.81,838c1.61,0,3.19,0,4.74-.1q17-.81,28-7.5,10.78-6.55,15.8-15v18.39q0,9.84-5.22,16.39a32.85,32.85,0,0,1-13.71,10,41.07,41.07,0,0,1-4.88,1.63.45.45,0,0,1-.11,0c-.77.23-1.56.42-2.37.59-.43.11-.88.2-1.32.28a3.11,3.11,0,0,1-.44.07c-.4.09-.8.15-1.2.21l-1.11.17-1.69.19c-.29,0-.59.06-.88.07-.61.06-1.26.09-1.88.12-.81,0-1.63.06-2.45.06a59.63,59.63,0,0,1-11-.94,35.73,35.73,0,0,1-13-4.87,117.08,117.08,0,0,1-15.94-12.07L692.87,859l-13.11,15.35q6.54,5.37,14.9,11.33c.61.43,1.25.86,1.89,1.28.37.24.75.49,1.12.71.55.36,1.12.7,1.68,1a3.4,3.4,0,0,0,.3.18l1.18.67.42.23,1,.52c.32.18.65.35,1,.52.76.39,1.55.76,2.34,1.13.48.24,1,.46,1.46.69.75.32,1.49.65,2.27,1,.51.22,1,.43,1.56.62a2,2,0,0,0,.38.15c.44.18.89.36,1.35.52.82.31,1.66.61,2.51.91,1.71.6,3.51,1.12,5.4,1.58,1.38.34,2.81.66,4.27.91,1.29.25,2.6.48,4,.66.95.13,1.95.26,2.95.37l3.05.28c.57,0,1.13.09,1.71.12,2.6.16,5.31.25,8.11.25h.18a89.52,89.52,0,0,0,39.19-8.49,74,74,0,0,0,28.47-23.25,56,56,0,0,0,10.73-33.83V704.18ZM772.6,795.23a36.61,36.61,0,0,1-11.92,6.56A48.5,48.5,0,0,1,745.33,804a38.48,38.48,0,0,1-7.37-.68A35,35,0,0,1,714,786.14a37.24,37.24,0,0,1-4.77-18.77A35.62,35.62,0,0,1,714,748.89a35.14,35.14,0,0,1,13-12.67,36.71,36.71,0,0,1,18.33-4.62A45.9,45.9,0,0,1,761,734.13a39,39,0,0,1,12.37,7.16,29.13,29.13,0,0,1,8,11.17v31.89A36.73,36.73,0,0,1,772.6,795.23Z"/><path class="cls-4" d="M994,749.63a67.31,67.31,0,0,0-6.79-17.73A62.4,62.4,0,0,0,968.32,711a68,68,0,0,0-6.32-4c-.58-.33-1.16-.64-1.76-.94-.26-.15-.55-.28-.83-.41-.48-.24-1-.48-1.45-.7-.76-.36-1.53-.7-2.32-1-.55-.24-1.1-.46-1.65-.67s-1.23-.48-1.84-.69c-.46-.18-.94-.34-1.41-.49-1.75-.6-3.52-1.12-5.34-1.57l-1.94-.46c-.76-.18-1.53-.34-2.32-.49-.31-.07-.64-.13-1-.18s-.77-.15-1.18-.21-.79-.13-1.17-.18c-1-.16-2-.29-3.07-.41-.84-.11-1.69-.2-2.54-.27s-1.49-.12-2.25-.16c-1.08-.08-2.2-.14-3.32-.17s-2.24-.06-3.38-.06q-22.07,0-39,9.09a66.44,66.44,0,0,0-26.37,24.89q-9.39,15.79-9.39,35.76a83.89,83.89,0,0,0,2.38,20.52h0c.55,2.16,1.19,4.27,1.92,6.31.25.68.51,1.35.78,2s.49,1.23.76,1.84a.68.68,0,0,0,.1.24c.27.62.55,1.25.85,1.86.21.43.42.86.64,1.29.64,1.3,1.34,2.55,2.09,3.77a62.58,62.58,0,0,0,26.37,24.15q16.83,8.33,38.3,8.34,23,0,39.34-9.24A66.57,66.57,0,0,0,976.37,818l.15-.16c.38-.37.76-.76,1.11-1.15.15-.15.29-.28.42-.43.36-.39.72-.78,1.06-1.18.66-.74,1.3-1.49,1.91-2.26.74-.93,1.47-1.88,2.16-2.85.1-.15.21-.28.3-.43.4-.57.79-1.13,1.16-1.72s.62-1,.94-1.47a1.91,1.91,0,0,0,.16-.27c.51-.8,1-1.64,1.45-2.47Q996,787.64,996,767.66A78.45,78.45,0,0,0,994,749.63Zm-51.81,47.24c-.3.27-.6.52-.91.76s-.72.57-1.09.84l-1.12.79a30,30,0,0,1-17,4.76A28.42,28.42,0,0,1,906,799.26a33.43,33.43,0,0,1-11.32-13c-.3-.6-.59-1.19-.84-1.79h0a1.39,1.39,0,0,1-.12-.28c-.23-.51-.44-1-.63-1.57s-.42-1.11-.6-1.68c-.13-.37-.23-.73-.34-1.1s-.22-.76-.31-1.13a4.58,4.58,0,0,1-.14-.56c-.13-.5-.25-1-.35-1.56s-.26-1.3-.35-2l0-.27c-.09-.67-.18-1.34-.24-2-.07-.84-.13-1.67-.16-2.52,0-.63,0-1.27,0-1.91a39.48,39.48,0,0,1,4.18-18.48A33.66,33.66,0,0,1,906,736.67a28.35,28.35,0,0,1,16.09-4.77c.48,0,1,0,1.42,0s.92,0,1.37.07.82.06,1.21.11l1.47.19c.44.06.87.13,1.29.22a32.53,32.53,0,0,1,3.74,1c.13,0,.28.09.41.15.45.15.87.31,1.3.49s.85.35,1.25.56h0l.84.42c.47.22.93.49,1.4.76s.85.5,1.26.79a31.42,31.42,0,0,1,11,12.81A42.15,42.15,0,0,1,954,768q0,1.18-.06,2.34c0,.64-.06,1.27-.12,1.89a.22.22,0,0,1,0,.11c0,.22,0,.43-.06.65a4.78,4.78,0,0,1-.09.76c-.06.5-.12,1-.19,1.46s-.19,1.23-.31,1.84a39.73,39.73,0,0,1-1.72,6.14c-.39,1.07-.83,2.11-1.31,3.14-.28.58-.57,1.16-.86,1.71-.12.21-.23.42-.35.62-.26.47-.55,1-.83,1.4l-.16.25c-.35.54-.71,1.07-1.09,1.58a3.4,3.4,0,0,1-.23.3c-.32.44-.67.88-1,1.29-.17.21-.36.42-.54.63s-.39.45-.6.66-.4.43-.61.64-.7.7-1.07,1a2.18,2.18,0,0,0-.22.21C942.39,796.68,942.29,796.78,942.17,796.87Z"/><path class="cls-5" d="M1166,729.07a59.37,59.37,0,0,0-22.5-23.4,61.17,61.17,0,0,0-31-8,88.36,88.36,0,0,0-29.2,4.47q-12.81,4.47-20.57,11V675.76h-41.43v81.11H1063v-5.6a31.57,31.57,0,0,1,7.6-11.18,34.2,34.2,0,0,1,11.92-7.15,44.11,44.11,0,0,1,15-2.53,33.25,33.25,0,0,1,17.14,4.62,35.26,35.26,0,0,1,12.67,12.66,33.32,33.32,0,0,1,3.71,9.18h42.94Q1172.6,741,1166,729.07Zm-36.75,52.14a31.6,31.6,0,0,1-1.84,3.74,35.69,35.69,0,0,1-12.67,13.11,32.55,32.55,0,0,1-17.14,4.77,45,45,0,0,1-14.6-2.23,33.67,33.67,0,0,1-11.48-6.56,39.3,39.3,0,0,1-8.49-10.88v-1.95h-41.73v53.21H1063V821.28a67.22,67.22,0,0,0,16.24,11.21q11.17,5.52,27.57,5.51a67.45,67.45,0,0,0,33.38-8.64,66.92,66.92,0,0,0,32.31-44c.31-1.37.58-2.78.8-4.2Z"/><rect class="cls-2" x="1021.31" y="634.36" width="41.43" height="41.4"/><rect class="cls-4" x="1012.41" y="574.89" width="41.43" height="41.4" transform="translate(-141.4 389.27) rotate(-20)"/><polygon class="cls-5" points="1251.71 756.87 1207.05 756.87 1181.36 704.18 1228.15 704.18 1251.71 756.87"/><polygon class="cls-5" points="1300.98 781.21 1250.51 897.01 1210.27 897.01 1241.51 827.57 1218.91 781.21 1300.98 781.21"/><polygon class="cls-5" points="1334.55 704.18 1311.59 756.87 1273.29 756.87 1297 704.18 1334.55 704.18"/><rect class="cls-5" x="1363.76" y="781.21" width="41.73" height="53.22"/><polygon class="cls-5" points="1437.08 703.59 1437.08 736.07 1405.49 736.07 1405.49 756.87 1363.76 756.87 1363.76 736.07 1343.49 736.07 1343.49 703.59 1363.76 703.59 1363.76 646.96 1405.49 646.96 1405.49 703.59 1437.08 703.59"/><path class="cls-5" d="M1595.12,756.87q-5.82-27.6-22.58-42.7-18-16.26-46-16.25a77,77,0,0,0-37.85,9.39,74.3,74.3,0,0,0-25.85,23.28c-.44.62-.85,1.26-1.27,1.9s-.61,1-.89,1.46c0,0-.06.06-.06.09-.32.51-.62,1-.91,1.55s-.45.79-.66,1.18c-.66,1.22-1.28,2.48-1.85,3.73-.15.31-.28.62-.41,1s-.29.63-.41.94c-.27.64-.52,1.3-.77,1.94-.18.46-.34.92-.51,1.4s-.36,1-.52,1.55-.33,1-.48,1.55c-.1.34-.19.67-.28,1s-.18.62-.25.95-.2.82-.3,1.22a1,1,0,0,0-.09.34c-.09.38-.18.75-.25,1.14-.24,1.11-.45,2.25-.63,3.39h41c0-.32.1-.65.16-1s.13-.65.21-1a1.5,1.5,0,0,1,.09-.42c.07-.35.15-.71.25-1.07a3.29,3.29,0,0,1,.15-.56c.12-.48.27-1,.4-1.42a.32.32,0,0,1,0-.09c.09-.3.2-.6.3-.89a13.07,13.07,0,0,1,.45-1.24q.15-.4.33-.81c.19-.5.41-1,.65-1.5a32.89,32.89,0,0,1,2-3.56,27.34,27.34,0,0,1,8.76-8.66,30.3,30.3,0,0,1,16.24-4.32q12.22,0,18.33,5.81a31.07,31.07,0,0,1,8.2,12.7l-23.58,8Zm-42.7,37a71.25,71.25,0,0,1-12.67,6.26,37.65,37.65,0,0,1-13.26,2.38,35.76,35.76,0,0,1-17.28-4.17,28.8,28.8,0,0,1-8.57-7l32-10.16h-80.3l.18,1.12c0,.27.09.55.15.82.34,2,.78,4,1.3,5.87.09.37.19.74.3,1.12.19.71.4,1.41.62,2.11l.43,1.31c.15.44.3.85.45,1.28s.27.79.43,1.18c.09.23.17.45.27.67a.43.43,0,0,0,.06.18,5.32,5.32,0,0,0,.26.61.17.17,0,0,0,0,.11c.15.38.31.77.48,1.14s.32.76.5,1.15c.38.82.76,1.64,1.17,2.45s.68,1.34,1,2a61.09,61.09,0,0,0,25.18,24.74q16.55,8.94,40.39,8.94a80.21,80.21,0,0,0,22.8-3.58,105.18,105.18,0,0,0,22.5-9.53Z"/><path class="cls-4" d="M472.32,704.18V834.42H430.6V818.14c-.09.12-.2.22-.3.34a68.82,68.82,0,0,1-8.79,8,57.36,57.36,0,0,1-14.31,8A53.72,53.72,0,0,1,387.08,838a81,81,0,0,1-9.3-.51,184,184,0,0,1-1-19,178.23,178.23,0,0,1,1.32-21.8,36.47,36.47,0,0,0,3.76,2.61A32.64,32.64,0,0,0,399,804a38,38,0,0,0,13.42-2.23,29.93,29.93,0,0,0,10.43-6.56,39.3,39.3,0,0,0,7.75-10.88V752.46a29.06,29.06,0,0,0-7.16-11.17,33,33,0,0,0-11.32-7.16,39.5,39.5,0,0,0-13.18-2.5,183.16,183.16,0,0,1,17.72-26.47,72.53,72.53,0,0,1,14.22,12.33l2.7-13.31Z"/><path class="cls-4" d="M641.91,737v97.45H600.18v-82q-.28-8.64-4.62-13.86t-14.45-5.21a24.54,24.54,0,0,0-16.69,6.26q-7.15,6.26-11,17a72.67,72.67,0,0,0-3.87,24.73v53H507.79V704.18h37.85l2.94,20.76a53.56,53.56,0,0,1,19.12-19.42q12.51-7.59,30.69-7.6,18.5,0,30.85,10.88T641.91,737Z"/><path class="cls-1" d="M784.67,704.18l-3.19,10.21q-6.26-7-18.42-11.85a72.14,72.14,0,0,0-21.4-4.62,160.63,160.63,0,0,0-54,120.22c0,.34,0,.68,0,1,.31.32.63.63,1,.93s.56.54.84.79a3.17,3.17,0,0,0,.39.34c.4.37.82.73,1.23,1.07a2.19,2.19,0,0,0,.23.21c.32.29.65.57,1,.82s1,.78,1.46,1.16.81.62,1.21.91.82.61,1.23.9.5.36.75.52c1.06.73,2.15,1.43,3.26,2.1A61.89,61.89,0,0,0,732.81,838c1.61,0,3.19,0,4.74-.1q17-.81,28-7.5,10.78-6.55,15.8-15v18.39q0,9.84-5.22,16.39a32.85,32.85,0,0,1-13.71,10,41.07,41.07,0,0,1-4.88,1.63.45.45,0,0,1-.11,0c-.77.23-1.56.42-2.37.59l-1.32.28a3.11,3.11,0,0,1-.44.07q-.6.12-1.2.21l-1.11.17-1.69.19c-.29,0-.59.06-.88.07-.61.06-1.26.09-1.88.12-.81,0-1.63.06-2.45.06a59.63,59.63,0,0,1-11-.94,35.73,35.73,0,0,1-13-4.87,117.08,117.08,0,0,1-15.94-12.07L692.87,859a159.25,159.25,0,0,0,12.68,33c.48.24,1,.46,1.46.69.75.32,1.49.65,2.27,1,.51.22,1,.43,1.56.62a2,2,0,0,0,.38.15c.44.18.89.36,1.35.52.82.31,1.66.61,2.51.91,1.71.6,3.51,1.12,5.4,1.58,1.38.34,2.81.66,4.27.91,1.29.25,2.6.48,4,.66.95.13,1.95.26,2.95.37l3.05.28c.57,0,1.13.09,1.71.12,2.6.16,5.31.25,8.11.25h.18a89.52,89.52,0,0,0,39.19-8.49,74,74,0,0,0,28.47-23.25,56,56,0,0,0,10.73-33.83V704.18ZM772.6,795.23a36.61,36.61,0,0,1-11.92,6.56A48.5,48.5,0,0,1,745.33,804a38.48,38.48,0,0,1-7.37-.68A35,35,0,0,1,714,786.14a37.24,37.24,0,0,1-4.77-18.77A35.62,35.62,0,0,1,714,748.89a35.14,35.14,0,0,1,13-12.67,36.71,36.71,0,0,1,18.33-4.62A45.9,45.9,0,0,1,761,734.13a39,39,0,0,1,12.37,7.16,29.13,29.13,0,0,1,8,11.17v31.89A36.73,36.73,0,0,1,772.6,795.23Z"/><path class="cls-4" d="M738.59,818.45a183.91,183.91,0,0,1-1,19.45c-1.55.07-3.13.1-4.74.1a61.89,61.89,0,0,1-32.64-9.09,67.57,67.57,0,0,1-24-24.74q-8.94-15.64-8.94-35.61,0-20.56,9.54-36.51a72.55,72.55,0,0,1,23.75-24.58,179.92,179.92,0,0,1,20.45,33,33.93,33.93,0,0,0-7,8.39,35.61,35.61,0,0,0-4.76,18.48A37.23,37.23,0,0,0,714,786.14,35,35,0,0,0,738,803.34Q738.59,810.81,738.59,818.45Z"/><path class="cls-4" d="M720.14,857.82a35.73,35.73,0,0,0,13,4.87,179.09,179.09,0,0,1-12.65,34.71c-1.9-.46-3.7-1-5.41-1.58a80.53,80.53,0,0,1-20.42-10.13q-8.34-6-14.9-11.33l24.44-28.61A117.08,117.08,0,0,0,720.14,857.82Z"/><path class="cls-1" d="M994,749.63A160.15,160.15,0,0,0,968.32,711a68,68,0,0,0-6.32-4c-.58-.33-1.16-.64-1.76-.94-.26-.15-.55-.28-.83-.41-.48-.24-1-.48-1.45-.7-.76-.36-1.53-.7-2.32-1-.55-.24-1.1-.46-1.65-.67s-1.23-.48-1.84-.69c-.46-.18-.94-.34-1.41-.49-1.75-.6-3.52-1.12-5.34-1.57l-1.94-.46c-.76-.18-1.53-.34-2.32-.49-.31-.07-.64-.13-1-.18s-.77-.15-1.18-.21-.79-.13-1.17-.18c-1-.16-2-.29-3.07-.41-.84-.11-1.69-.2-2.54-.27s-1.49-.12-2.25-.16c-1.08-.08-2.2-.14-3.32-.17s-2.24-.06-3.38-.06q-22.07,0-39,9.09a66.44,66.44,0,0,0-26.37,24.89q-9.39,15.79-9.39,35.76a83.89,83.89,0,0,0,2.38,20.52h0c.55,2.16,1.19,4.27,1.92,6.31.25.68.51,1.35.78,2s.49,1.23.76,1.84a.68.68,0,0,0,.1.24c.27.62.55,1.25.85,1.86.21.43.42.86.64,1.29.64,1.3,1.34,2.55,2.09,3.77a62.58,62.58,0,0,0,26.37,24.15q16.83,8.33,38.3,8.34,23,0,39.34-9.24A66.57,66.57,0,0,0,976.37,818l.15-.16c.38-.37.76-.76,1.11-1.15.15-.15.29-.28.42-.43.36-.39.72-.78,1.06-1.18.66-.74,1.3-1.49,1.91-2.26.74-.93,1.47-1.88,2.16-2.85.1-.15.21-.28.3-.43.4-.57.79-1.13,1.16-1.72s.62-1,.94-1.47a1.91,1.91,0,0,0,.16-.27c.51-.8,1-1.64,1.45-2.47Q996,787.64,996,767.66A78.45,78.45,0,0,0,994,749.63Zm-51.81,47.24c-.3.27-.6.52-.91.76s-.72.57-1.09.84l-1.12.79a30,30,0,0,1-17,4.76A28.42,28.42,0,0,1,906,799.26a33.43,33.43,0,0,1-11.32-13c-.3-.6-.59-1.19-.84-1.79h0a1.39,1.39,0,0,1-.12-.28c-.23-.51-.44-1-.63-1.57s-.42-1.11-.6-1.68c-.13-.37-.23-.73-.34-1.1s-.22-.76-.31-1.13a4.58,4.58,0,0,1-.14-.56c-.13-.5-.25-1-.35-1.56s-.26-1.3-.35-2l0-.27c-.09-.67-.18-1.34-.24-2-.07-.84-.13-1.67-.16-2.52,0-.63,0-1.27,0-1.91a39.48,39.48,0,0,1,4.18-18.48A33.66,33.66,0,0,1,906,736.67a28.35,28.35,0,0,1,16.09-4.77c.48,0,1,0,1.42,0s.92,0,1.37.07.81.06,1.21.11l1.47.19c.44.06.87.13,1.29.22a32.53,32.53,0,0,1,3.74,1c.13,0,.28.09.41.15.45.15.87.31,1.3.49s.85.35,1.25.56h0l.84.42c.47.22.93.49,1.4.76s.85.5,1.26.79a31.42,31.42,0,0,1,11,12.81A42.15,42.15,0,0,1,954,768q0,1.18-.06,2.34c0,.64-.06,1.27-.12,1.89a.22.22,0,0,1,0,.11c0,.22,0,.43-.06.65a4.78,4.78,0,0,1-.09.76c-.06.5-.12,1-.19,1.46s-.19,1.23-.31,1.84a39.73,39.73,0,0,1-1.72,6.14c-.39,1.07-.82,2.11-1.31,3.14-.28.58-.57,1.16-.86,1.71-.12.21-.23.42-.35.62-.26.47-.55,1-.83,1.4l-.16.25c-.35.54-.71,1.07-1.09,1.58a3.4,3.4,0,0,1-.23.3c-.32.44-.67.88-1,1.29-.17.21-.36.42-.54.63s-.39.45-.6.66-.4.43-.61.64-.7.68-1.07,1a2.18,2.18,0,0,0-.22.21C942.39,796.68,942.29,796.78,942.17,796.87Z"/><path class="cls-5" d="M996,767.66q0,20-8.79,35.92c-.46.83-.94,1.67-1.45,2.47a114.51,114.51,0,0,1-32.63-29,47.28,47.28,0,0,0,.85-9,42.15,42.15,0,0,0-3.88-18.48,31.42,31.42,0,0,0-11-12.81,27.35,27.35,0,0,0-6.49-3.18,114.93,114.93,0,0,1-3-26q0-4.71.37-9.32,18.15,1.15,32,8.86a66.71,66.71,0,0,1,6.32,4,62.4,62.4,0,0,1,18.87,20.94A67.31,67.31,0,0,1,994,749.63,78.45,78.45,0,0,1,996,767.66Z"/><path class="cls-4" d="M1063,756.87h-41.73v-2.48a230.34,230.34,0,0,1,32.47-2.3q4.65,0,9.26.18Z"/><path class="cls-4" d="M1172.54,785.41a66.92,66.92,0,0,1-32.31,44,67.45,67.45,0,0,1-33.38,8.64q-16.38,0-27.57-5.51A67.22,67.22,0,0,1,1063,821.28v13.14h-41.73V781.21H1063v1.95a39.3,39.3,0,0,0,8.49,10.88A33.67,33.67,0,0,0,1083,800.6a45,45,0,0,0,14.6,2.23,32.55,32.55,0,0,0,17.14-4.77A35.69,35.69,0,0,0,1127.42,785a31.6,31.6,0,0,0,1.84-3.74h36.11C1167.78,782.57,1170.18,784,1172.54,785.41Z"/><path class="cls-6" d="M1301,781.21,1250.51,897h-3.12a173.52,173.52,0,0,1,46.7-115.8Z"/><rect class="cls-6" x="1363.76" y="781.21" width="41.73" height="53.22"/><path class="cls-6" d="M1437.08,726.38v9.69h-31.59v20.8h-41.73v-20.8h-1.46a173.65,173.65,0,0,1,59.34-10.37C1426.84,725.7,1432,725.92,1437.08,726.38Z"/><path class="cls-6" d="M1493.22,756.87h-41c.18-1.14.39-2.28.63-3.39.07-.39.16-.76.25-1.14a1,1,0,0,1,.09-.34c.1-.4.19-.82.3-1.22s.16-.64.25-.95.18-.66.28-1c.15-.52.3-1,.48-1.55s.34-1,.52-1.55.33-.94.51-1.4c.25-.64.5-1.3.77-1.94.12-.31.26-.63.41-.94s.26-.64.41-1c.57-1.25,1.19-2.51,1.85-3.73.21-.39.43-.79.66-1.18s.59-1,.91-1.55c0,0,0-.06.06-.09.28-.49.58-1,.89-1.46s.83-1.28,1.27-1.9a171.88,171.88,0,0,1,35.42,12.8,32.89,32.89,0,0,0-2,3.56c-.24.49-.46,1-.65,1.5q-.18.4-.33.81a13.07,13.07,0,0,0-.45,1.24c-.1.29-.21.59-.3.89a.32.32,0,0,0,0,.09c-.15.46-.28.94-.4,1.42a3.29,3.29,0,0,0-.15.56,9.77,9.77,0,0,0-.25,1.07,1.5,1.5,0,0,0-.09.42,9.59,9.59,0,0,0-.21,1C1493.32,756.22,1493.26,756.55,1493.22,756.87Z"/><path class="cls-6" d="M1570.9,824.89a105.18,105.18,0,0,1-22.5,9.53,80.21,80.21,0,0,1-22.8,3.58q-23.85,0-40.39-8.94A61.09,61.09,0,0,1,1460,804.32c-.36-.65-.72-1.32-1-2s-.79-1.63-1.17-2.45c-.18-.39-.35-.76-.5-1.15s-.33-.76-.48-1.14a.17.17,0,0,1,0-.11,5.32,5.32,0,0,1-.26-.61.43.43,0,0,1-.06-.18c-.1-.22-.18-.44-.27-.67-.16-.39-.29-.79-.43-1.18s-.3-.84-.45-1.28l-.43-1.31c-.22-.7-.43-1.4-.62-2.11-.11-.38-.21-.75-.3-1.12-.52-1.92-1-3.88-1.3-5.87-.06-.27-.1-.55-.15-.82l-.18-1.12h80.3l-32,10.16a28.8,28.8,0,0,0,8.57,7,35.76,35.76,0,0,0,17.28,4.17,37.65,37.65,0,0,0,13.26-2.38,71.25,71.25,0,0,0,12.67-6.26Z"/><path class="cls-1" d="M1405.49,647v40.19a181.45,181.45,0,0,1-41.73,13.6V647Z"/><path class="cls-2" d="M823.12,798v36.4a56,56,0,0,1-10.73,33.83,74,74,0,0,1-28.47,23.25A89.52,89.52,0,0,1,744.73,900h-.18a141.48,141.48,0,0,1,13-38.15,41.84,41.84,0,0,0,4.89-1.63,33,33,0,0,0,13.71-10q5.21-6.56,5.21-16.39V828.3A142.5,142.5,0,0,1,823.12,798Z"/><path class="cls-2" d="M976.37,818A66.57,66.57,0,0,1,962,828.76Q945.62,838,922.66,838q-21.45,0-38.3-8.34a62.8,62.8,0,0,1-33.51-41.48,141.22,141.22,0,0,1,33.51-4c3.18,0,6.32.1,9.44.31h0c.26.6.54,1.19.84,1.79a33.43,33.43,0,0,0,11.32,13,28.45,28.45,0,0,0,16.1,4.76,28.92,28.92,0,0,0,20.43-7.43A141.45,141.45,0,0,1,976.37,818Z"/><path class="cls-5" d="M88.88,669.8q-.45,0-.9,0A48.53,48.53,0,0,1,37.82,615,48.53,48.53,0,0,1,88.88,669.8Z"/><path class="cls-5" d="M132.5,637.42a48.42,48.42,0,0,1-29.14,29.37,48.51,48.51,0,0,1,25-70.54A48.36,48.36,0,0,1,132.5,637.42Z"/><path class="cls-2" d="M72,637.82a48.52,48.52,0,0,1-.43,6.42,47.28,47.28,0,0,1-7.78,20.32,48.59,48.59,0,0,1-26-49.52,48.52,48.52,0,0,1,32.43,9.89A47.65,47.65,0,0,1,72,637.82Z"/><path class="cls-4" d="M132.5,637.42a48.15,48.15,0,0,1-9.9,16.51,52.49,52.49,0,0,1-17.26-39c0-.38,0-.75,0-1.12a48.41,48.41,0,0,1,23-17.58A48.36,48.36,0,0,1,132.5,637.42Z"/><path class="cls-4" d="M88,669.83a48.51,48.51,0,0,1-48.82-35.57c1.12-.07,2.26-.12,3.4-.12A46.75,46.75,0,0,1,88,669.83Z"/><path class="cls-1" d="M464.25,921l19,39.49h-6.92l-3.38-7.73H454.86l-3.38,7.73h-6.71L463.66,921Zm-2.68,16.79-4.3,9.55h13.31l-4.24-9.49L464,932.42h-.1Z"/><path class="cls-1" d="M495.76,959.43a11.88,11.88,0,0,1-4.5-4.51,13.4,13.4,0,0,1-1.69-6.84,13.18,13.18,0,0,1,3.27-9.36,11.51,11.51,0,0,1,8.85-3.51,10.93,10.93,0,0,1,5.69,1.53,8,8,0,0,1,3.49,3.67l-.27-4.18V921h5.69v39.44h-5.53l-.11-4.35a8.35,8.35,0,0,1-3.32,3.41,10.23,10.23,0,0,1-5.42,1.47A12.41,12.41,0,0,1,495.76,959.43ZM508,954a7.53,7.53,0,0,0,2.1-5.55v-.38a8.77,8.77,0,0,0-1-4.13,7.22,7.22,0,0,0-2.63-2.84,6.84,6.84,0,0,0-3.65-1,6.54,6.54,0,0,0-5.31,2.23,8.62,8.62,0,0,0-1.88,5.76,8.76,8.76,0,0,0,1.86,5.82,6.52,6.52,0,0,0,5.33,2.23A7,7,0,0,0,508,954Z"/><path class="cls-1" d="M534.07,959.43a11.84,11.84,0,0,1-4.51-4.51,13.5,13.5,0,0,1-1.69-6.84q0-5.85,3.28-9.36a11.51,11.51,0,0,1,8.85-3.51,10.9,10.9,0,0,1,5.68,1.53,8,8,0,0,1,3.49,3.67l-.27-4.18V921h5.69v39.44h-5.53l-.1-4.35a8.31,8.31,0,0,1-3.33,3.41,10.23,10.23,0,0,1-5.42,1.47A12.37,12.37,0,0,1,534.07,959.43ZM546.33,954a7.57,7.57,0,0,0,2.09-5.55v-.38a8.65,8.65,0,0,0-1-4.13,7.22,7.22,0,0,0-2.63-2.84,6.8,6.8,0,0,0-3.64-1,6.54,6.54,0,0,0-5.31,2.23,8.57,8.57,0,0,0-1.88,5.76,8.81,8.81,0,0,0,1.85,5.82,6.52,6.52,0,0,0,5.34,2.23A7,7,0,0,0,546.33,954Z"/><path class="cls-1" d="M588.44,940.47h-4v-4.62h4v-5.31q0-4.83,2.33-7.48t6.84-2.66a10.42,10.42,0,0,1,4.14,1l-1.13,5.47a4.08,4.08,0,0,0-1.16-.83,3.56,3.56,0,0,0-1.68-.4q-3.6,0-3.65,4.66v5.53h5.79v4.62h-5.79v20h-5.69ZM606,921h5.74v39.44H606Z"/><path class="cls-1" d="M630,959.43a11.81,11.81,0,0,1-4.5-4.51,13.4,13.4,0,0,1-1.69-6.84,14.76,14.76,0,0,1,1.47-6.76,10.83,10.83,0,0,1,4.21-4.5,12.42,12.42,0,0,1,6.44-1.61,10.72,10.72,0,0,1,4,.75,11.27,11.27,0,0,1,3.17,1.85,5.91,5.91,0,0,1,1.72,2.17l.1-4.13h5.53v24.63H645l-.11-4.35a8.31,8.31,0,0,1-3.33,3.41,10.19,10.19,0,0,1-5.41,1.47A12.41,12.41,0,0,1,630,959.43Zm12.26-5.37a7.53,7.53,0,0,0,2.09-5.55v-.37a8.71,8.71,0,0,0-1-4.13,7.18,7.18,0,0,0-2.63-2.85,6.86,6.86,0,0,0-3.65-1,6.57,6.57,0,0,0-5.31,2.23,8.65,8.65,0,0,0-1.88,5.77,8.85,8.85,0,0,0,1.85,5.82,6.58,6.58,0,0,0,5.34,2.22A6.92,6.92,0,0,0,642.3,954.06Z"/><path class="cls-1" d="M659.74,935.85h6.59L671.65,947l1.71,4.45,1.72-4.45,5.26-11.11h6.44l-12.93,24.63h-1.13Z"/><path class="cls-1" d="M699.92,959.29a11.81,11.81,0,0,1-4.56-4.66,14.12,14.12,0,0,1,0-13,11.85,11.85,0,0,1,4.54-4.67,14.38,14.38,0,0,1,13.6,0,11.81,11.81,0,0,1,4.5,4.67,14.12,14.12,0,0,1,0,13,11.87,11.87,0,0,1-4.53,4.66,13,13,0,0,1-6.73,1.72A13.15,13.15,0,0,1,699.92,959.29ZM711.75,954a10,10,0,0,0-.14-11.66,6.19,6.19,0,0,0-5.09-2.39,5.93,5.93,0,0,0-4.91,2.36,9.28,9.28,0,0,0-1.85,5.9,8.62,8.62,0,0,0,2,5.77,6.42,6.42,0,0,0,5.1,2.33A5.89,5.89,0,0,0,711.75,954Z"/><path class="cls-1" d="M732.62,958c-1.28-2-1.91-4.8-1.91-8.37V935.85h5.8v12.34a25.23,25.23,0,0,0,.34,4.75,4,4,0,0,0,1.4,2.49,5.08,5.08,0,0,0,3.14.81,5.51,5.51,0,0,0,2.9-.86,6.79,6.79,0,0,0,2.27-2.34,6.08,6.08,0,0,0,.89-3.24V935.85h5.74v24.63h-4.72l-.65-3.6a8.5,8.5,0,0,1-3.35,3.11,10.62,10.62,0,0,1-4.85,1Q734.52,961,732.62,958Z"/><path class="cls-1" d="M766.12,935.85h5.79v4.83a8.4,8.4,0,0,1,2.79-4,7,7,0,0,1,4.4-1.5,5.79,5.79,0,0,1,2.36.32l-.8,5.85a4.26,4.26,0,0,0-2.09-.33,7.3,7.3,0,0,0-4.59,1.61c-1.38,1.08-2.07,2.79-2.07,5.15v12.67h-5.79Z"/><path class="cls-1" d="M811.56,940.57h-4.35v-4.72h4.35v-10l5.84-1.29v11.32h5.69v4.72H817.4v19.91h-5.84Z"/><path class="cls-1" d="M837.9,959.29a11.81,11.81,0,0,1-4.56-4.66,14.12,14.12,0,0,1,0-13,11.85,11.85,0,0,1,4.54-4.67,14.38,14.38,0,0,1,13.6,0,11.88,11.88,0,0,1,4.5,4.67,14.16,14.16,0,0,1,0,13,12,12,0,0,1-4.54,4.66,13,13,0,0,1-6.73,1.72A13.12,13.12,0,0,1,837.9,959.29ZM849.73,954a10.07,10.07,0,0,0-.14-11.66,6.19,6.19,0,0,0-5.09-2.39,5.93,5.93,0,0,0-4.91,2.36,9.23,9.23,0,0,0-1.85,5.9,8.62,8.62,0,0,0,2,5.77,6.41,6.41,0,0,0,5.1,2.33A5.89,5.89,0,0,0,849.73,954Z"/><path class="cls-1" d="M894.66,961.23l-10.2-25.38H891l5.26,15.67,1.17,3.8,1.19-3.8,5.52-15.67h6.33L895.35,974h-6Z"/><path class="cls-1" d="M924.32,959.29a11.87,11.87,0,0,1-4.56-4.66,14.08,14.08,0,0,1,0-13,11.75,11.75,0,0,1,4.53-4.67,13.35,13.35,0,0,1,6.81-1.71,13.2,13.2,0,0,1,6.79,1.71,11.81,11.81,0,0,1,4.5,4.67,14.08,14.08,0,0,1,0,13,12,12,0,0,1-4.54,4.66,13,13,0,0,1-6.73,1.72A13.15,13.15,0,0,1,924.32,959.29ZM936.15,954a10,10,0,0,0-.13-11.66,6.22,6.22,0,0,0-5.1-2.39,6,6,0,0,0-4.91,2.36,9.28,9.28,0,0,0-1.85,5.9,8.58,8.58,0,0,0,2,5.77,6.39,6.39,0,0,0,5.09,2.33A5.88,5.88,0,0,0,936.15,954Z"/><path class="cls-1" d="M957,958q-1.9-3-1.91-8.37V935.85h5.8v12.34a24.27,24.27,0,0,0,.35,4.75,4,4,0,0,0,1.39,2.49,5.1,5.1,0,0,0,3.14.81,5.49,5.49,0,0,0,2.9-.86A6.73,6.73,0,0,0,971,953a6.16,6.16,0,0,0,.88-3.24V935.85h5.74v24.63h-4.72l-.64-3.6a8.57,8.57,0,0,1-3.35,3.11,10.67,10.67,0,0,1-4.86,1Q958.92,961,957,958Z"/><path class="cls-1" d="M990.52,935.85h5.8v4.83a8.38,8.38,0,0,1,2.78-4,7,7,0,0,1,4.41-1.5,5.86,5.86,0,0,1,2.36.32l-.81,5.85a4.26,4.26,0,0,0-2.09-.33,7.32,7.32,0,0,0-4.59,1.61c-1.38,1.08-2.06,2.79-2.06,5.15v12.67h-5.8Z"/><path class="cls-2" d="M1043,959.54a8.22,8.22,0,0,1-3.3-3.41l-.11,4.35H1034V921h5.69v15.19l-.27,4.18a8,8,0,0,1,3.57-3.67,11.34,11.34,0,0,1,5.76-1.53,12.09,12.09,0,0,1,6.36,1.63,10.86,10.86,0,0,1,4.16,4.56,15.21,15.21,0,0,1,1.45,6.79,13.33,13.33,0,0,1-1.69,6.81,11.78,11.78,0,0,1-4.51,4.46,12.59,12.59,0,0,1-6.14,1.55A10,10,0,0,1,1043,959.54Zm9.79-5.58a8.66,8.66,0,0,0,1.87-5.77,8.76,8.76,0,0,0-1.85-5.82,6.62,6.62,0,0,0-5.39-2.23,7,7,0,0,0-5.15,2.12,7.6,7.6,0,0,0-2.09,5.55v.38a8.52,8.52,0,0,0,1,4.13,7.37,7.37,0,0,0,2.63,2.84,6.71,6.71,0,0,0,3.62,1A6.64,6.64,0,0,0,1052.81,954Z"/><path class="cls-2" d="M1072.12,935.85h5.79v4.83a8.4,8.4,0,0,1,2.79-4,7,7,0,0,1,4.4-1.5,5.79,5.79,0,0,1,2.36.32l-.8,5.85a4.28,4.28,0,0,0-2.1-.33,7.27,7.27,0,0,0-4.58,1.61c-1.38,1.08-2.07,2.79-2.07,5.15v12.67h-5.79Z"/><path class="cls-2" d="M1101.65,959.43a11.84,11.84,0,0,1-4.51-4.51,13.49,13.49,0,0,1-1.68-6.84,14.76,14.76,0,0,1,1.47-6.76,10.76,10.76,0,0,1,4.21-4.5,12.39,12.39,0,0,1,6.44-1.61,10.72,10.72,0,0,1,4,.75,11.41,11.41,0,0,1,3.17,1.85,5.77,5.77,0,0,1,1.71,2.17l.11-4.13h5.53v24.63h-5.48l-.1-4.35a8.31,8.31,0,0,1-3.33,3.41,10.2,10.2,0,0,1-5.42,1.47A12.4,12.4,0,0,1,1101.65,959.43Zm12.26-5.37a7.53,7.53,0,0,0,2.09-5.55v-.37a8.6,8.6,0,0,0-1-4.13,7.15,7.15,0,0,0-2.62-2.85,6.86,6.86,0,0,0-3.65-1,6.57,6.57,0,0,0-5.31,2.23,8.65,8.65,0,0,0-1.88,5.77,8.85,8.85,0,0,0,1.85,5.82,6.56,6.56,0,0,0,5.34,2.22A6.93,6.93,0,0,0,1113.91,954.06Z"/><path class="cls-2" d="M1135.26,935.85H1141l0,4.51a8.61,8.61,0,0,1,3.22-3.7,9.12,9.12,0,0,1,5.15-1.45,9.41,9.41,0,0,1,5.85,1.58,7.7,7.7,0,0,1,2.73,4.43,31.68,31.68,0,0,1,.7,7.4v11.86h-5.79v-11.7a18.16,18.16,0,0,0-.91-6.73c-.61-1.38-1.86-2.07-3.76-2.07a6.38,6.38,0,0,0-3.27,1,7.94,7.94,0,0,0-2.76,2.87,8.51,8.51,0,0,0-1.1,4.4v12.24h-5.8Z"/><path class="cls-2" d="M1176.22,959.43a11.84,11.84,0,0,1-4.51-4.51,13.5,13.5,0,0,1-1.69-6.84,13.19,13.19,0,0,1,3.28-9.36,11.51,11.51,0,0,1,8.85-3.51,11,11,0,0,1,5.69,1.53,8.06,8.06,0,0,1,3.48,3.67l-.26-4.18V921h5.68v39.44h-5.52l-.11-4.35a8.31,8.31,0,0,1-3.33,3.41,10.2,10.2,0,0,1-5.42,1.47A12.4,12.4,0,0,1,1176.22,959.43Zm12.26-5.42a7.57,7.57,0,0,0,2.09-5.55v-.38a8.76,8.76,0,0,0-1-4.13,7.29,7.29,0,0,0-2.63-2.84,6.86,6.86,0,0,0-3.65-1,6.54,6.54,0,0,0-5.31,2.23,8.57,8.57,0,0,0-1.88,5.76,8.81,8.81,0,0,0,1.85,5.82,6.52,6.52,0,0,0,5.34,2.23A7,7,0,0,0,1188.48,954Z"/></g></svg>